<mxfile host="app.diagrams.net" modified="2022-04-09T04:38:56.370Z" agent="5.0 (Windows NT 10.0; Win64; x64) AppleWebKit/537.36 (KHTML, like Gecko) Chrome/100.0.4896.75 Safari/537.36" etag="GUDj985SNBasFqFDbxKr" version="17.4.0" type="github">
  <diagram id="0WsAM_WMDWSk5i0kJ9NH" name="Page-1">
    <mxGraphModel dx="1824" dy="993" grid="1" gridSize="10" guides="1" tooltips="1" connect="1" arrows="1" fold="1" page="1" pageScale="1" pageWidth="1654" pageHeight="2336" math="0" shadow="0">
      <root>
        <mxCell id="0" />
        <mxCell id="1" parent="0" />
        <mxCell id="vXcKBsRQnSgELRRLZla8-1" value="IDLE" style="ellipse;whiteSpace=wrap;html=1;" vertex="1" parent="1">
          <mxGeometry x="240" y="190" width="160" height="120" as="geometry" />
        </mxCell>
        <mxCell id="vXcKBsRQnSgELRRLZla8-2" value="COMPARE_TAGS" style="ellipse;whiteSpace=wrap;html=1;" vertex="1" parent="1">
          <mxGeometry x="640" y="190" width="160" height="120" as="geometry" />
        </mxCell>
        <mxCell id="vXcKBsRQnSgELRRLZla8-3" value="ALLOCATE" style="ellipse;whiteSpace=wrap;html=1;" vertex="1" parent="1">
          <mxGeometry x="240" y="470" width="160" height="120" as="geometry" />
        </mxCell>
        <mxCell id="vXcKBsRQnSgELRRLZla8-4" value="" style="endArrow=classic;html=1;rounded=0;exitX=0.998;exitY=0.413;exitDx=0;exitDy=0;exitPerimeter=0;entryX=-0.012;entryY=0.427;entryDx=0;entryDy=0;entryPerimeter=0;" edge="1" parent="1" source="vXcKBsRQnSgELRRLZla8-1" target="vXcKBsRQnSgELRRLZla8-2">
          <mxGeometry width="50" height="50" relative="1" as="geometry">
            <mxPoint x="510" y="190" as="sourcePoint" />
            <mxPoint x="560" y="140" as="targetPoint" />
          </mxGeometry>
        </mxCell>
        <mxCell id="vXcKBsRQnSgELRRLZla8-5" value="" style="endArrow=classic;html=1;rounded=0;entryX=1.011;entryY=0.595;entryDx=0;entryDy=0;entryPerimeter=0;exitX=-0.008;exitY=0.611;exitDx=0;exitDy=0;exitPerimeter=0;" edge="1" parent="1" source="vXcKBsRQnSgELRRLZla8-2" target="vXcKBsRQnSgELRRLZla8-1">
          <mxGeometry width="50" height="50" relative="1" as="geometry">
            <mxPoint x="540" y="360" as="sourcePoint" />
            <mxPoint x="638.4" y="261.68" as="targetPoint" />
          </mxGeometry>
        </mxCell>
        <mxCell id="vXcKBsRQnSgELRRLZla8-6" value="(valid &amp;amp; hit) / set cache ready" style="text;html=1;align=center;verticalAlign=middle;resizable=0;points=[];autosize=1;strokeColor=none;fillColor=none;" vertex="1" parent="1">
          <mxGeometry x="435" y="270" width="170" height="20" as="geometry" />
        </mxCell>
        <mxCell id="vXcKBsRQnSgELRRLZla8-7" value="cache ready &amp;amp; valid CPU request" style="text;html=1;align=center;verticalAlign=middle;resizable=0;points=[];autosize=1;strokeColor=none;fillColor=none;" vertex="1" parent="1">
          <mxGeometry x="425" y="220" width="190" height="20" as="geometry" />
        </mxCell>
        <mxCell id="vXcKBsRQnSgELRRLZla8-8" value="" style="endArrow=classic;html=1;rounded=0;exitX=0.188;exitY=0.917;exitDx=0;exitDy=0;exitPerimeter=0;entryX=0.938;entryY=0.25;entryDx=0;entryDy=0;entryPerimeter=0;" edge="1" parent="1" source="vXcKBsRQnSgELRRLZla8-2" target="vXcKBsRQnSgELRRLZla8-3">
          <mxGeometry width="50" height="50" relative="1" as="geometry">
            <mxPoint x="490" y="420" as="sourcePoint" />
            <mxPoint x="540" y="370" as="targetPoint" />
          </mxGeometry>
        </mxCell>
        <mxCell id="vXcKBsRQnSgELRRLZla8-9" value="" style="endArrow=classic;html=1;rounded=0;exitX=0.5;exitY=1;exitDx=0;exitDy=0;" edge="1" parent="1" source="vXcKBsRQnSgELRRLZla8-3">
          <mxGeometry width="50" height="50" relative="1" as="geometry">
            <mxPoint x="650" y="460" as="sourcePoint" />
            <mxPoint x="320" y="680" as="targetPoint" />
          </mxGeometry>
        </mxCell>
        <mxCell id="vXcKBsRQnSgELRRLZla8-12" value="reset" style="text;html=1;align=center;verticalAlign=middle;resizable=0;points=[];autosize=1;strokeColor=none;fillColor=none;" vertex="1" parent="1">
          <mxGeometry x="270" y="140" width="40" height="20" as="geometry" />
        </mxCell>
        <mxCell id="vXcKBsRQnSgELRRLZla8-13" value="cache miss &amp;amp; (dirty bit == 0)&amp;nbsp;&amp;nbsp;" style="text;html=1;align=center;verticalAlign=middle;resizable=0;points=[];autosize=1;strokeColor=none;fillColor=none;rotation=-35;" vertex="1" parent="1">
          <mxGeometry x="425" y="390" width="170" height="20" as="geometry" />
        </mxCell>
        <mxCell id="vXcKBsRQnSgELRRLZla8-14" value="Memory Ready" style="text;html=1;align=center;verticalAlign=middle;resizable=0;points=[];autosize=1;strokeColor=none;fillColor=none;rotation=0;" vertex="1" parent="1">
          <mxGeometry x="220" y="620" width="100" height="20" as="geometry" />
        </mxCell>
        <mxCell id="vXcKBsRQnSgELRRLZla8-15" value="WRITEMEM" style="ellipse;whiteSpace=wrap;html=1;" vertex="1" parent="1">
          <mxGeometry x="240" y="680" width="160" height="120" as="geometry" />
        </mxCell>
        <mxCell id="vXcKBsRQnSgELRRLZla8-16" value="WRITEBACK" style="ellipse;whiteSpace=wrap;html=1;" vertex="1" parent="1">
          <mxGeometry x="640" y="680" width="160" height="120" as="geometry" />
        </mxCell>
        <mxCell id="vXcKBsRQnSgELRRLZla8-18" value="cache miss &amp;amp; (dirty bit == 1)&amp;nbsp;&amp;nbsp;" style="text;html=1;align=center;verticalAlign=middle;resizable=0;points=[];autosize=1;strokeColor=none;fillColor=none;rotation=0;" vertex="1" parent="1">
          <mxGeometry x="435" y="720" width="170" height="20" as="geometry" />
        </mxCell>
        <mxCell id="vXcKBsRQnSgELRRLZla8-19" value="" style="curved=1;endArrow=classic;html=1;rounded=0;entryX=0.982;entryY=0.388;entryDx=0;entryDy=0;entryPerimeter=0;exitX=0.918;exitY=0.772;exitDx=0;exitDy=0;exitPerimeter=0;" edge="1" parent="1" source="vXcKBsRQnSgELRRLZla8-16" target="vXcKBsRQnSgELRRLZla8-16">
          <mxGeometry width="50" height="50" relative="1" as="geometry">
            <mxPoint x="810" y="760" as="sourcePoint" />
            <mxPoint x="910" y="710" as="targetPoint" />
            <Array as="points">
              <mxPoint x="870" y="760" />
              <mxPoint x="860" y="710" />
            </Array>
          </mxGeometry>
        </mxCell>
        <mxCell id="vXcKBsRQnSgELRRLZla8-20" value="" style="curved=1;endArrow=classic;html=1;rounded=0;entryX=0.396;entryY=-0.006;entryDx=0;entryDy=0;entryPerimeter=0;" edge="1" parent="1" source="vXcKBsRQnSgELRRLZla8-1" target="vXcKBsRQnSgELRRLZla8-1">
          <mxGeometry width="50" height="50" relative="1" as="geometry">
            <mxPoint x="190" y="210" as="sourcePoint" />
            <mxPoint x="240" y="160" as="targetPoint" />
            <Array as="points">
              <mxPoint x="240" y="210" />
              <mxPoint x="240" y="140" />
            </Array>
          </mxGeometry>
        </mxCell>
        <mxCell id="vXcKBsRQnSgELRRLZla8-21" value="memory_ready == 0" style="text;html=1;align=center;verticalAlign=middle;resizable=0;points=[];autosize=1;strokeColor=none;fillColor=none;" vertex="1" parent="1">
          <mxGeometry x="870" y="710" width="120" height="20" as="geometry" />
        </mxCell>
        <mxCell id="vXcKBsRQnSgELRRLZla8-22" value="" style="endArrow=classic;html=1;rounded=0;exitX=1;exitY=0.5;exitDx=0;exitDy=0;entryX=0;entryY=0.5;entryDx=0;entryDy=0;" edge="1" parent="1" source="vXcKBsRQnSgELRRLZla8-15" target="vXcKBsRQnSgELRRLZla8-16">
          <mxGeometry width="50" height="50" relative="1" as="geometry">
            <mxPoint x="490" y="760" as="sourcePoint" />
            <mxPoint x="540" y="710" as="targetPoint" />
          </mxGeometry>
        </mxCell>
      </root>
    </mxGraphModel>
  </diagram>
</mxfile>
